<svg width="200" height="29" viewBox="0 0 200 29" fill="none" xmlns="http://www.w3.org/2000/svg">
<g clip-path="url(#clip0_2866_4790)">
<path d="M199.206 17.3642V19.0764C199.206 20.3792 198.618 21.6008 197.612 22.5787C196.687 23.4755 195.427 23.9639 194.083 23.9639H184.421C183.077 23.9639 181.817 23.4755 180.893 22.5787C179.969 21.6008 179.296 20.4604 179.296 19.2388V9.54179C179.296 8.239 179.969 7.01629 180.893 6.11957C181.817 5.22397 183.077 4.73443 184.421 4.73443H194.083C195.427 4.73443 196.687 5.22397 197.612 6.11957C198.536 7.09863 199.206 8.15779 199.206 9.46058V11.254H195.427V9.86777C195.427 9.46058 195.427 9.1346 195.091 8.80862C194.755 8.48264 194.503 8.40143 194.083 8.40143H184.421C184.001 8.40143 183.665 8.56498 183.413 8.80862C183.077 9.1346 183.077 9.54179 183.077 9.95011V18.7504C183.077 19.2389 183.077 19.5637 183.413 19.8908C183.665 20.1344 184.001 20.2969 184.421 20.2969H194.083C194.503 20.2969 194.839 20.1344 195.091 19.8908C195.427 19.5637 195.427 19.3201 195.427 18.8305V17.3642H199.206Z" fill="#EC7405"/>
<path d="M174.256 12.4756V15.9779H161.402V20.2969H177.533V23.9639H157.706V4.73443H177.533V8.40143H161.402V12.4756H174.256Z" fill="#EC7405"/>
<path d="M147.793 23.9639H144.096V8.239H136.031V4.73443H155.857V8.239H147.793V23.9639Z" fill="#EC7405"/>
<mask id="mask0_2866_4790" style="mask-type:luminance" maskUnits="userSpaceOnUse" x="-466" y="-53" width="696" height="951">
<path d="M-465.184 897.103H229.26V-52.5138H-465.184V897.103Z" fill="white"/>
</mask>
<g mask="url(#mask0_2866_4790)">
<path d="M119.481 4.73394H129.144C130.486 4.73394 131.747 5.22348 132.671 6.11908C133.595 7.09702 134.267 8.15617 134.267 9.46009V19.2372C134.267 20.5412 133.595 21.6003 132.671 22.5782C131.747 23.475 130.486 23.9634 129.144 23.9634H119.481C118.137 23.9634 116.877 23.475 115.953 22.5782C115.029 21.6003 114.358 20.5412 114.358 19.2372V9.46009C114.358 8.15617 115.029 7.09702 115.953 6.11908C116.877 5.22348 118.137 4.73394 119.481 4.73394ZM129.144 8.40094H119.481C119.062 8.40094 118.725 8.56336 118.474 8.80813C118.137 9.13411 118.137 9.5413 118.137 9.94849V18.7488C118.137 19.156 118.137 19.5621 118.474 19.8892C118.725 20.134 119.062 20.2964 119.481 20.2964H129.144C129.562 20.2964 129.898 20.214 130.15 19.8892C130.486 19.5621 130.486 19.2372 130.486 18.7488V9.94849C130.486 9.5413 130.486 9.13411 130.15 8.80813C129.898 8.56336 129.562 8.40094 129.144 8.40094Z" fill="#EC7405"/>
</g>
<path d="M100.579 20.2969H112.593V23.9639H96.9662V4.73443H100.579V20.2969Z" fill="#EC7405"/>
<mask id="mask1_2866_4790" style="mask-type:luminance" maskUnits="userSpaceOnUse" x="-466" y="-53" width="696" height="951">
<path d="M-465.184 897.103H229.26V-52.5138H-465.184V897.103Z" fill="white"/>
</mask>
<g mask="url(#mask1_2866_4790)">
<path d="M87.1377 15.9774V23.9634H83.3568V15.9774H80.165C78.8211 15.9774 77.812 15.4902 76.888 14.5934C75.8801 13.7779 75.2921 12.5563 75.2921 11.2524V4.73395H79.073V10.9264C79.073 11.3336 79.073 11.6596 79.3239 11.9856C79.661 12.3116 79.997 12.4751 80.417 12.4751H89.9935C90.4975 12.4751 90.8346 12.3116 91.0854 11.9856C91.3386 11.742 91.4214 11.3336 91.4214 10.9264V4.73395H95.1183V11.2524C95.1183 12.5563 94.5304 13.7779 93.6064 14.5934C92.5985 15.4902 91.6746 15.9774 90.3295 15.9774H87.1377Z" fill="#EC7405"/>
</g>
<path d="M59.3301 16.305V23.9639H55.7172V4.73443H59.3301V12.2308L67.8147 4.73443H73.6955L62.4391 14.3492L75.5446 23.9639H69.6638L59.3301 16.305Z" fill="#EC7405"/>
<path d="M48.6609 15.9779H39.0003C37.6552 15.9779 36.3953 15.4906 35.3874 14.5939C34.4635 13.7784 33.8755 12.5568 33.8755 11.2529V9.54179C33.8755 8.23787 34.4635 7.09751 35.4714 6.11957C36.3953 5.22397 37.5713 4.73443 38.9152 4.73443H48.6609C49.9208 4.73443 51.1807 5.22397 52.0207 6.11957C52.9458 7.01629 53.5337 8.23787 53.5337 9.54179V11.2529H49.7528V10.1125C49.7528 9.62301 49.7528 9.1346 49.5008 8.80862C49.1648 8.56385 48.8289 8.40143 48.4089 8.40143H39.0003C38.4952 8.40143 38.2432 8.56385 37.9072 8.80862C37.6552 9.1346 37.5713 9.70422 37.5713 10.1125V10.6833C37.5713 11.1717 37.6552 11.6601 37.9072 11.9861C38.2432 12.3121 38.4952 12.4756 39.0003 12.4756H48.6609C50.0048 12.4756 51.2647 12.8828 52.1887 13.8607C53.1138 14.6751 53.7017 15.8967 53.7017 17.1194V19.1565C53.7017 20.4604 53.1138 21.6008 52.1887 22.5787C51.1807 23.4755 50.0048 23.9639 48.6609 23.9639H39.1683C37.8232 23.9639 36.5633 23.4755 35.6394 22.5787C34.7154 21.6008 34.1275 20.4604 34.1275 19.1565V17.3642H37.8232V18.7493C37.8232 19.1565 37.8232 19.5626 38.1592 19.8897C38.4112 20.1344 38.7472 20.2969 39.1683 20.2969H48.5769C49.0808 20.2969 49.4168 20.1344 49.6688 19.8897C50.0048 19.5626 50.0048 19.0753 50.0048 18.6681V17.6902C50.0048 17.283 50.0048 16.7122 49.6688 16.3874C49.4168 16.1415 49.0808 15.9779 48.6609 15.9779Z" fill="#EC7405"/>
<path d="M11.1925 1.2309C18.7532 -0.724976 26.3978 3.59398 28.4137 10.8456C30.4307 18.0149 25.9779 25.5113 18.5012 27.4672C11.0245 29.422 3.29581 25.103 1.27878 17.8525C-0.737094 10.6009 3.71579 3.18678 11.1925 1.2309ZM11.7804 3.10444C5.39568 4.81555 1.53076 11.1705 3.29581 17.2829C4.97571 23.4742 11.6124 27.2224 17.9972 25.5113C24.382 23.8814 28.1629 17.4453 26.4818 11.334C24.7179 5.14153 18.1652 1.47454 11.7804 3.10444Z" fill="#8F9092"/>
<path d="M14.8888 4.73443C12.0318 4.73443 9.09197 6.11957 7.24409 8.23787C4.97506 10.7645 9.93191 11.1717 9.93191 14.3492C9.93191 17.5266 4.97506 17.9338 7.24409 20.4604C9.09197 22.5787 12.0318 23.9639 14.8888 23.9639C17.7446 23.9639 20.6016 22.5787 22.5334 20.4604C24.7173 17.9338 19.8456 17.5266 19.8456 14.3492C19.8456 11.1717 24.7173 10.7645 22.5334 8.23787C20.6016 6.11957 17.7446 4.73443 14.8888 4.73443Z" fill="#8F9092"/>
<path d="M199.206 17.3642V19.0764C199.206 20.3792 198.618 21.6008 197.612 22.5787C196.687 23.4755 195.427 23.9639 194.083 23.9639H184.421C183.077 23.9639 181.817 23.4755 180.893 22.5787C179.969 21.6008 179.296 20.4604 179.296 19.2388V9.54179C179.296 8.239 179.969 7.01629 180.893 6.11957C181.817 5.22397 183.077 4.73443 184.421 4.73443H194.083C195.427 4.73443 196.687 5.22397 197.612 6.11957C198.536 7.09863 199.206 8.15779 199.206 9.46058V11.254H195.427V9.86777C195.427 9.46058 195.427 9.1346 195.091 8.80862C194.755 8.48264 194.503 8.40143 194.083 8.40143H184.421C184.001 8.40143 183.665 8.56498 183.413 8.80862C183.077 9.1346 183.077 9.54179 183.077 9.95011V18.7504C183.077 19.2389 183.077 19.5637 183.413 19.8908C183.665 20.1344 184.001 20.2969 184.421 20.2969H194.083C194.503 20.2969 194.839 20.1344 195.091 19.8908C195.427 19.5637 195.427 19.3201 195.427 18.8305V17.3642H199.206Z" fill="#EC7405"/>
<path d="M174.256 12.4756V15.9779H161.402V20.2969H177.533V23.9639H157.706V4.73443H177.533V8.40143H161.402V12.4756H174.256Z" fill="#EC7405"/>
<path d="M147.793 23.9639H144.096V8.239H136.031V4.73443H155.857V8.239H147.793V23.9639Z" fill="#EC7405"/>
<mask id="mask2_2866_4790" style="mask-type:luminance" maskUnits="userSpaceOnUse" x="-466" y="-53" width="696" height="951">
<path d="M-465.184 897.103H229.26V-52.5138H-465.184V897.103Z" fill="white"/>
</mask>
<g mask="url(#mask2_2866_4790)">
<path d="M119.481 4.73394H129.144C130.486 4.73394 131.747 5.22348 132.671 6.11908C133.595 7.09702 134.267 8.15617 134.267 9.46009V19.2372C134.267 20.5412 133.595 21.6003 132.671 22.5782C131.747 23.475 130.486 23.9634 129.144 23.9634H119.481C118.137 23.9634 116.877 23.475 115.953 22.5782C115.029 21.6003 114.358 20.5412 114.358 19.2372V9.46009C114.358 8.15617 115.029 7.09702 115.953 6.11908C116.877 5.22348 118.137 4.73394 119.481 4.73394ZM129.144 8.40094H119.481C119.062 8.40094 118.725 8.56336 118.474 8.80813C118.137 9.13411 118.137 9.5413 118.137 9.94849V18.7488C118.137 19.156 118.137 19.5621 118.474 19.8892C118.725 20.134 119.062 20.2964 119.481 20.2964H129.144C129.562 20.2964 129.898 20.214 130.15 19.8892C130.486 19.5621 130.486 19.2372 130.486 18.7488V9.94849C130.486 9.5413 130.486 9.13411 130.15 8.80813C129.898 8.56336 129.562 8.40094 129.144 8.40094Z" fill="#EC7405"/>
</g>
<path d="M100.579 20.2969H112.593V23.9639H96.9662V4.73443H100.579V20.2969Z" fill="#EC7405"/>
<mask id="mask3_2866_4790" style="mask-type:luminance" maskUnits="userSpaceOnUse" x="-466" y="-53" width="696" height="951">
<path d="M-465.184 897.103H229.26V-52.5138H-465.184V897.103Z" fill="white"/>
</mask>
<g mask="url(#mask3_2866_4790)">
<path d="M87.1377 15.9774V23.9634H83.3568V15.9774H80.165C78.8211 15.9774 77.812 15.4902 76.888 14.5934C75.8801 13.7779 75.2921 12.5563 75.2921 11.2524V4.73395H79.073V10.9264C79.073 11.3336 79.073 11.6596 79.3239 11.9856C79.661 12.3116 79.997 12.4751 80.417 12.4751H89.9935C90.4975 12.4751 90.8346 12.3116 91.0854 11.9856C91.3386 11.742 91.4214 11.3336 91.4214 10.9264V4.73395H95.1183V11.2524C95.1183 12.5563 94.5304 13.7779 93.6064 14.5934C92.5985 15.4902 91.6746 15.9774 90.3295 15.9774H87.1377Z" fill="#EC7405"/>
</g>
<path d="M59.3301 16.305V23.9639H55.7172V4.73443H59.3301V12.2308L67.8147 4.73443H73.6955L62.4391 14.3492L75.5446 23.9639H69.6638L59.3301 16.305Z" fill="#EC7405"/>
<mask id="mask4_2866_4790" style="mask-type:luminance" maskUnits="userSpaceOnUse" x="-466" y="-53" width="696" height="951">
<path d="M-465.184 897.103H229.26V-52.5138H-465.184V897.103Z" fill="white"/>
</mask>
<g mask="url(#mask4_2866_4790)">
<path d="M48.6609 15.9774H39.0003C37.6552 15.9774 36.3953 15.4902 35.3874 14.5934C34.4635 13.7779 33.8755 12.5563 33.8755 11.2524V9.5413C33.8755 8.23738 34.4635 7.09702 35.4714 6.11908C36.3953 5.22348 37.5713 4.73395 38.9152 4.73395H48.6609C49.9208 4.73395 51.1807 5.22348 52.0207 6.11908C52.9458 7.01581 53.5337 8.23738 53.5337 9.5413V11.2524H49.7528V10.1121C49.7528 9.62252 49.7528 9.13411 49.5008 8.80813C49.1648 8.56336 48.8289 8.40094 48.4089 8.40094H39.0003C38.4952 8.40094 38.2432 8.56336 37.9072 8.80813C37.6552 9.13411 37.5713 9.70373 37.5713 10.1121V10.6828C37.5713 11.1712 37.6552 11.6596 37.9072 11.9856C38.2432 12.3116 38.4952 12.4751 39.0003 12.4751H48.6609C50.0048 12.4751 51.2647 12.8823 52.1887 13.8603C53.1138 14.6746 53.7017 15.8962 53.7017 17.1189V19.156C53.7017 20.4599 53.1138 21.6003 52.1887 22.5782C51.1807 23.475 50.0048 23.9634 48.6609 23.9634H39.1683C37.8232 23.9634 36.5633 23.475 35.6394 22.5782C34.7154 21.6003 34.1275 20.4599 34.1275 19.156V17.3637H37.8232V18.7488C37.8232 19.156 37.8232 19.5621 38.1592 19.8892C38.4112 20.134 38.7472 20.2964 39.1683 20.2964H48.5769C49.0808 20.2964 49.4168 20.134 49.6688 19.8892C50.0048 19.5621 50.0048 19.0748 50.0048 18.6676V17.6897C50.0048 17.2825 50.0048 16.7117 49.6688 16.3869C49.4168 16.141 49.0808 15.9774 48.6609 15.9774Z" fill="#EC7405"/>
<path d="M11.1925 1.2309C18.7532 -0.724976 26.3978 3.59398 28.4137 10.8456C30.4307 18.0149 25.9779 25.5113 18.5012 27.4672C11.0245 29.422 3.29581 25.103 1.27878 17.8525C-0.737094 10.6009 3.71579 3.18678 11.1925 1.2309ZM11.7804 3.10444C5.39568 4.81555 1.53076 11.1705 3.29581 17.2829C4.97571 23.4742 11.6124 27.2224 17.9972 25.5113C24.382 23.8814 28.1629 17.4453 26.4818 11.334C24.7179 5.14153 18.1652 1.47454 11.7804 3.10444Z" fill="#8F9092"/>
<path d="M14.8888 4.73395C12.0318 4.73395 9.09197 6.11908 7.24409 8.23738C4.97506 10.764 9.93191 11.1712 9.93191 14.3487C9.93191 17.5261 4.97506 17.9333 7.24409 20.4599C9.09197 22.5782 12.0318 23.9634 14.8888 23.9634C17.7446 23.9634 20.6016 22.5782 22.5334 20.4599C24.7173 17.9333 19.8456 17.5261 19.8456 14.3487C19.8456 11.1712 24.7173 10.764 22.5334 8.23738C20.6016 6.11908 17.7446 4.73395 14.8888 4.73395Z" fill="#8F9092"/>
</g>
</g>
<defs>
<clipPath id="clip0_2866_4790">
<rect width="200" height="28.6996" fill="white"/>
</clipPath>
</defs>
</svg>
